<svg width="53" height="53" viewBox="0 0 53 53" fill="none" xmlns="http://www.w3.org/2000/svg">
<path d="M23.3808 37.9416L40.0592 19.4183L36.3809 16.1063L23.0145 30.9512L15.5263 24.2088L12.2143 27.8872L23.3808 37.9416ZM27.5825 51.2399C24.129 51.4209 20.8491 50.9356 17.7429 49.7841C14.6367 48.6326 11.9012 46.9923 9.53657 44.8631C7.1719 42.7339 5.25462 40.185 3.78473 37.2162C2.31484 34.2473 1.4894 31.0361 1.3084 27.5825C1.1274 24.129 1.61266 20.8491 2.76418 17.7429C3.91569 14.6367 5.55603 11.9012 7.68519 9.53657C9.81435 7.1719 12.3633 5.25462 15.3321 3.78473C18.301 2.31484 21.5122 1.4894 24.9657 1.3084C28.4193 1.1274 31.6992 1.61266 34.8054 2.76418C37.9116 3.91569 40.6471 5.55603 43.0117 7.68519C45.3764 9.81435 47.2937 12.3633 48.7636 15.3321C50.2335 18.301 51.0589 21.5122 51.2399 24.9657C51.4209 28.4193 50.9356 31.6992 49.7841 34.8054C48.6326 37.9116 46.9923 40.6471 44.8631 43.0117C42.7339 45.3764 40.185 47.2937 37.2162 48.7636C34.2473 50.2335 31.0361 51.0589 27.5825 51.2399Z" fill="#006E1C"/>
</svg>
