<svg width="390" height="884" viewBox="0 0 390 884" fill="none" xmlns="http://www.w3.org/2000/svg">
<path opacity="0.1" d="M94.6667 192V160.267L67.2 176.133L57.8667 160L85.3333 144L57.8667 128.133L67.2 112L94.6667 127.867V96H113.333V127.867L140.8 112L150.133 128.133L122.667 144L150.133 160L140.8 176.133L113.333 160.267V192H94.6667Z" fill="#191C1E"/>
<g opacity="0.1">
<path d="M304.667 804C295.067 804 286.889 800.622 280.133 793.867C273.378 787.111 270 778.933 270 769.333V766.267C262.356 765.022 256 761.444 250.933 755.533C245.867 749.622 243.333 742.667 243.333 734.667V702.667H259.333V697.333H270V718.667H259.333V713.333H254V734.667C254 740.533 256.089 745.556 260.267 749.733C264.444 753.911 269.467 756 275.333 756C281.2 756 286.222 753.911 290.4 749.733C294.578 745.556 296.667 740.533 296.667 734.667V713.333H291.333V718.667H280.667V697.333H291.333V702.667H307.333V734.667C307.333 742.667 304.8 749.622 299.733 755.533C294.667 761.444 288.311 765.022 280.667 766.267V769.333C280.667 776 283 781.667 287.667 786.333C292.333 791 298 793.333 304.667 793.333C311.333 793.333 317 791 321.667 786.333C326.333 781.667 328.667 776 328.667 769.333V760.4C325.556 759.333 323 757.422 321 754.667C319 751.911 318 748.8 318 745.333C318 740.889 319.556 737.111 322.667 734C325.778 730.889 329.556 729.333 334 729.333C338.444 729.333 342.222 730.889 345.333 734C348.444 737.111 350 740.889 350 745.333C350 748.8 349 751.911 347 754.667C345 757.422 342.444 759.333 339.333 760.4V769.333C339.333 778.933 335.956 787.111 329.2 793.867C322.444 800.622 314.267 804 304.667 804ZM334 750.667C335.511 750.667 336.778 750.156 337.8 749.133C338.822 748.111 339.333 746.844 339.333 745.333C339.333 743.822 338.822 742.556 337.8 741.533C336.778 740.511 335.511 740 334 740C332.489 740 331.222 740.511 330.2 741.533C329.178 742.556 328.667 743.822 328.667 745.333C328.667 746.844 329.178 748.111 330.2 749.133C331.222 750.156 332.489 750.667 334 750.667Z" fill="#191C1E"/>
</g>
</svg>
