<svg width="107" height="107" viewBox="0 0 107 107" fill="none" xmlns="http://www.w3.org/2000/svg">
<g opacity="0.1">
<path d="M61.3333 106.667C51.7333 106.667 43.5556 103.289 36.8 96.5333C30.0444 89.7778 26.6667 81.6 26.6667 72V68.9333C19.0222 67.6889 12.6667 64.1111 7.6 58.2C2.53333 52.2889 0 45.3333 0 37.3333V5.33333H16V0H26.6667V21.3333H16V16H10.6667V37.3333C10.6667 43.2 12.7556 48.2222 16.9333 52.4C21.1111 56.5778 26.1333 58.6667 32 58.6667C37.8667 58.6667 42.8889 56.5778 47.0667 52.4C51.2444 48.2222 53.3333 43.2 53.3333 37.3333V16H48V21.3333H37.3333V0H48V5.33333H64V37.3333C64 45.3333 61.4667 52.2889 56.4 58.2C51.3333 64.1111 44.9778 67.6889 37.3333 68.9333V72C37.3333 78.6667 39.6667 84.3333 44.3333 89C49 93.6667 54.6667 96 61.3333 96C68 96 73.6667 93.6667 78.3333 89C83 84.3333 85.3333 78.6667 85.3333 72V63.0667C82.2222 62 79.6667 60.0889 77.6667 57.3333C75.6667 54.5778 74.6667 51.4667 74.6667 48C74.6667 43.5556 76.2222 39.7778 79.3333 36.6667C82.4445 33.5556 86.2222 32 90.6667 32C95.1111 32 98.8889 33.5556 102 36.6667C105.111 39.7778 106.667 43.5556 106.667 48C106.667 51.4667 105.667 54.5778 103.667 57.3333C101.667 60.0889 99.1111 62 96 63.0667V72C96 81.6 92.6222 89.7778 85.8667 96.5333C79.1111 103.289 70.9333 106.667 61.3333 106.667ZM90.6667 53.3333C92.1778 53.3333 93.4444 52.8222 94.4667 51.8C95.4889 50.7778 96 49.5111 96 48C96 46.4889 95.4889 45.2222 94.4667 44.2C93.4444 43.1778 92.1778 42.6667 90.6667 42.6667C89.1556 42.6667 87.8889 43.1778 86.8667 44.2C85.8444 45.2222 85.3333 46.4889 85.3333 48C85.3333 49.5111 85.8444 50.7778 86.8667 51.8C87.8889 52.8222 89.1556 53.3333 90.6667 53.3333Z" fill="#191C1E"/>
</g>
</svg>
